<?xml version="1.0" encoding="UTF-8"?>
<svg enable-background="new 0 0 286.107 286.107" version="1.1" viewBox="0 0 286.107 286.107" xml:space="preserve" xmlns="http://www.w3.org/2000/svg">
    <path d="m237.89 54.663c-10.638-10.772-20.149-19.353-33.978-26.129-8.689-4.264-19.175-0.59-23.376 8.197-4.228 8.787-0.581 19.362 8.099 23.626 10.298 5.042 17.217 10.62 25.164 18.665 39.011 39.449 39.011 103.63 0 143.07-18.897 19.121-44.043 29.624-70.763 29.624-26.728 0-51.865-10.512-70.763-29.624-39.011-39.44-39.011-103.62 0-143.07 7.974-8.054 15.858-13.614 25.647-18.647 8.269-4.273 11.728-14.839 7.715-23.635-4.014-8.778-12.649-12.39-21.123-8.242-13.436 6.597-25.647 15.393-36.311 26.165-52.303 52.875-52.303 138.9 0 191.78 26.156 26.433 60.5 39.663 94.845 39.663 34.353 0 68.698-13.221 94.845-39.663 52.32-52.866 52.32-138.9-1e-3 -191.78zm-94.827 88.364c9.869 0 17.878-8.01 17.878-17.878v-107.27c0-9.868-8.009-17.878-17.878-17.878s-17.878 8.01-17.878 17.878v107.27c0 9.878 8.009 17.879 17.878 17.879z" fill="#2695BD"/>
</svg>
